<svg width="7212" height="2348" viewBox="0 0 7212 2348" fill="none" xmlns="http://www.w3.org/2000/svg">
<path d="M967.055 81C471.055 81 103.737 494.297 120.555 970C131.055 1267 346.555 1644 774.555 1644C1157.05 1644 1444.05 1334 1444.05 978C1444.05 828.492 1346.55 677 1185.55 631C1142.55 617 1099.87 635.5 1087.05 677C1074.24 718.5 1096.05 760.433 1137.55 771.5C1246.05 797 1295.05 907 1295.05 970C1295.05 1099.69 1267.75 1160.56 1217.05 1247C1125.55 1403 954.555 1499.5 774.555 1499.5C559.555 1499.5 268.055 1313 268.055 954C268.055 541 565.555 227 967.055 227C1436.05 227 1680.18 634 1668.55 954C1648.05 1190.5 1556.55 1360 1370.55 1495.5C1405.41 1547.35 1420.38 1577.49 1437.55 1633.5C1666.55 1475.5 1799.05 1247 1817.05 954C1817.05 524.5 1504.98 81 967.055 81Z" fill="url(#paint0_linear_27_38)"/>
<path d="M786.555 772.123C678.055 797.623 629.055 907.623 629.055 970.623C629.055 1100.31 753.558 1284.5 967.058 1284.5C1233.06 1284.5 1461.05 1504 1461.05 1775.5C1461.05 1995.5 1302.55 2258.5 968.055 2267C927.068 2268.04 896.055 2231 896.055 2193C896.055 2157.5 922.555 2119 968.055 2119C1173.05 2119 1310.05 1942 1310.05 1775.5C1310.05 1619 1180.56 1434 967.059 1434C701.059 1434 480.055 1211.5 480.055 978.623C480.055 829.115 577.555 677.623 738.555 631.623C781.555 617.623 824.239 636.123 837.055 677.623C849.871 719.123 828.055 761.056 786.555 772.123Z" fill="url(#paint1_linear_27_38)"/>
<path d="M2150.82 903V1196H2418.82V908H2547.82V1588H2418.82V1300H2150.82V1588H2021.82V908L2150.82 903ZM2975.15 1600C2891.15 1600 2824.82 1577 2776.15 1531C2728.15 1485 2704.15 1423.33 2704.15 1346C2704.15 1268.67 2725.82 1206.67 2769.15 1160C2813.15 1113.33 2872.82 1090 2948.15 1090C3024.15 1090 3079.82 1115.33 3115.15 1166C3151.15 1216 3169.15 1275.33 3169.15 1344V1384H2842.15C2848.15 1416 2862.82 1441.67 2886.15 1461C2909.49 1479.67 2940.15 1489 2978.15 1489C3000.15 1489 3019.82 1486.33 3037.15 1481C3055.15 1475 3075.82 1466.67 3099.15 1456L3137.15 1550C3114.49 1567.33 3086.82 1580 3054.15 1588C3022.15 1596 2995.82 1600 2975.15 1600ZM3046.15 1297C3039.49 1264.33 3027.49 1240.33 3010.15 1225C2992.82 1209 2971.15 1201 2945.15 1201C2918.49 1201 2896.15 1209.33 2878.15 1226C2860.15 1242 2848.49 1265.67 2843.15 1297H3046.15ZM3396.07 1443C3396.07 1457 3401.74 1469.67 3413.07 1481C3424.41 1491.67 3439.41 1497 3458.07 1497C3476.07 1497 3494.07 1493 3512.07 1485C3530.74 1477 3548.41 1465 3565.07 1449V1375H3467.07C3444.41 1375 3426.74 1382 3414.07 1396C3402.07 1410 3396.07 1425.67 3396.07 1443ZM3460.07 1600C3400.74 1600 3356.74 1585.67 3328.07 1557C3299.41 1527.67 3285.07 1489.67 3285.07 1443C3285.07 1393 3302.07 1354.67 3336.07 1328C3370.07 1301.33 3414.41 1288 3469.07 1288H3564.07C3563.41 1263.33 3556.07 1244.33 3542.07 1231C3528.74 1217 3510.07 1210 3486.07 1210C3463.41 1210 3438.74 1213.33 3412.07 1220C3385.41 1226 3363.07 1233.33 3345.07 1242L3310.07 1134C3328.74 1121.33 3357.07 1111 3395.07 1103C3433.74 1094.33 3463.41 1090 3484.07 1090C3542.07 1090 3591.74 1107 3633.07 1141C3674.41 1174.33 3695.07 1217 3695.07 1269V1588H3628.07L3596.07 1547C3578.07 1561 3556.74 1573.33 3532.07 1584C3508.07 1594.67 3484.07 1600 3460.07 1600ZM3980.7 882V1588H3851.7V893L3980.7 882ZM4440.32 1578C4429.66 1586.67 4414.32 1593.67 4394.32 1599C4374.99 1605 4357.66 1608 4342.32 1608C4282.32 1608 4234.99 1593 4200.32 1563C4166.32 1532.33 4149.32 1489 4149.32 1433V1204H4084.32V1104H4149.32V989L4278.32 966V1104H4366.32L4406.32 1204H4278.32V1410C4278.32 1435.33 4284.32 1456.33 4296.32 1473C4308.32 1489 4325.99 1497 4349.32 1497C4357.99 1497 4366.66 1496 4375.32 1494C4383.99 1492 4392.99 1488.67 4402.32 1484L4440.32 1578ZM4678.39 1135C4699.73 1118.33 4724.06 1105.67 4751.39 1097C4779.39 1088.33 4804.39 1084 4826.39 1084C4892.39 1084 4939.06 1103.33 4966.39 1142C4994.39 1180.67 5008.39 1228 5008.39 1284V1588H4878.39V1290C4878.39 1259.33 4871.06 1236 4856.39 1220C4841.73 1203.33 4820.06 1195 4791.39 1195C4772.73 1195 4753.39 1200 4733.39 1210C4713.39 1219.33 4695.06 1230.33 4678.39 1243V1588H4549.39V893L4678.39 882V1135ZM5628.36 1588H5179.36V908H5308.36V1487H5608.36L5628.36 1588ZM5795.32 888C5815.99 888 5833.32 895 5847.32 909C5861.99 923 5869.32 940.333 5869.32 961C5869.32 981.667 5861.99 999 5847.32 1013C5833.32 1027 5815.99 1034 5795.32 1034C5775.32 1034 5758.32 1027 5744.32 1013C5730.32 999 5723.32 981.667 5723.32 961C5723.32 940.333 5730.32 923 5744.32 909C5758.32 895 5775.32 888 5795.32 888ZM5860.32 1103V1588H5730.32V1103H5860.32ZM6123.18 1155C6145.18 1133 6172.52 1115.67 6205.18 1103C6238.52 1090.33 6268.18 1084 6294.18 1084C6360.18 1084 6406.85 1103.33 6434.18 1142C6462.18 1180.67 6476.18 1228 6476.18 1284V1588H6346.18V1290C6346.18 1259.33 6338.85 1236 6324.18 1220C6309.52 1203.33 6288.18 1195 6260.18 1195C6241.52 1195 6221.85 1200 6201.18 1210C6181.18 1219.33 6162.85 1230.33 6146.18 1243V1588H6016.18V1103H6084.18L6123.18 1155ZM6877.26 1600C6793.26 1600 6726.93 1577 6678.26 1531C6630.26 1485 6606.26 1423.33 6606.26 1346C6606.26 1268.67 6627.93 1206.67 6671.26 1160C6715.26 1113.33 6774.93 1090 6850.26 1090C6926.26 1090 6981.93 1115.33 7017.26 1166C7053.26 1216 7071.26 1275.33 7071.26 1344V1384H6744.26C6750.26 1416 6764.93 1441.67 6788.26 1461C6811.6 1479.67 6842.26 1489 6880.26 1489C6902.26 1489 6921.93 1486.33 6939.26 1481C6957.26 1475 6977.93 1466.67 7001.26 1456L7039.26 1550C7016.6 1567.33 6988.93 1580 6956.26 1588C6924.26 1596 6897.93 1600 6877.26 1600ZM6948.26 1297C6941.6 1264.33 6929.6 1240.33 6912.26 1225C6894.93 1209 6873.26 1201 6847.26 1201C6820.6 1201 6798.26 1209.33 6780.26 1226C6762.26 1242 6750.6 1265.67 6745.26 1297H6948.26Z" fill="url(#paint2_linear_27_38)"/>
<defs>
<linearGradient id="paint0_linear_27_38" x1="1669.79" y1="543.171" x2="100.315" y2="1714.83" gradientUnits="userSpaceOnUse">
<stop stop-color="#369987"/>
<stop offset="1" stop-color="#2D4736"/>
</linearGradient>
<linearGradient id="paint1_linear_27_38" x1="970.555" y1="627" x2="970.555" y2="2267.02" gradientUnits="userSpaceOnUse">
<stop stop-color="#57D1BB"/>
<stop offset="1" stop-color="#2A5739"/>
</linearGradient>
<linearGradient id="paint2_linear_27_38" x1="4523.5" y1="597" x2="4523.71" y2="1750" gradientUnits="userSpaceOnUse">
<stop stop-color="#57D1BB"/>
<stop offset="1" stop-color="#2A5739"/>
</linearGradient>
</defs>
</svg>
